<?xml version="1.0" standalone="no"?>
<!DOCTYPE svg PUBLIC "-//W3C//DTD SVG 20010904//EN"
 "http://www.w3.org/TR/2001/REC-SVG-20010904/DTD/svg10.dtd">
<svg version="1.0" xmlns="http://www.w3.org/2000/svg"
 width="700.000000pt" height="700.000000pt" viewBox="0 0 700.000000 700.000000"
 preserveAspectRatio="xMidYMid meet">
<metadata>
Created by potrace 1.14, written by Peter Selinger 2001-2017
</metadata>
<g transform="translate(0.000000,700.000000) scale(0.100000,-0.100000)"
fill="#000000" stroke="none">
<path d="M3278 6195 c-2 -1 -46 -5 -98 -9 -177 -11 -451 -53 -605 -93 -33 -8
-67 -16 -75 -18 -133 -27 -479 -147 -638 -220 -29 -14 -55 -25 -58 -25 -9 0
-378 -187 -432 -219 -29 -17 -55 -31 -57 -31 -7 0 -208 -125 -307 -191 -147
-97 -324 -227 -499 -369 -18 -14 -3 -39 285 -475 339 -513 531 -804 852 -1290
244 -371 410 -623 722 -1095 118 -179 252 -381 297 -450 45 -69 167 -254 271
-411 104 -157 272 -412 374 -567 102 -155 187 -282 190 -282 3 0 27 35 55 78
27 42 53 79 57 80 5 2 8 7 8 12 0 6 223 347 320 490 18 27 430 650 525 795 51
77 199 302 330 500 465 704 968 1464 1140 1725 78 118 240 363 359 545 l218
329 -28 24 c-61 51 -70 58 -109 87 -22 16 -42 32 -45 35 -27 29 -428 305 -531
365 -507 294 -899 461 -1341 569 -79 19 -156 37 -173 40 -16 3 -68 12 -115 20
-47 8 -130 19 -185 26 -55 6 -116 13 -135 16 -36 6 -566 14 -572 9z m486 -569
c49 -4 99 -8 110 -11 12 -2 44 -7 71 -10 90 -11 109 -15 225 -40 63 -14 126
-27 140 -30 125 -27 470 -155 710 -265 289 -131 748 -383 743 -408 -1 -6 -211
-325 -466 -709 -638 -960 -1464 -2205 -1477 -2223 -6 -8 -78 -117 -161 -242
-83 -126 -155 -228 -160 -228 -5 0 -19 17 -32 38 -13 20 -163 246 -332 502
-170 256 -399 602 -510 770 -486 734 -847 1279 -964 1455 -69 104 -130 197
-136 207 -5 9 -25 37 -42 63 -18 25 -33 50 -33 56 0 5 -4 9 -10 9 -5 0 -10 4
-10 10 0 11 -62 103 -72 108 -5 2 -8 8 -8 12 0 5 -20 37 -44 72 -76 112 -76
102 1 151 341 218 882 470 1253 585 140 44 320 82 500 107 58 8 155 18 215 21
61 4 111 7 112 8 5 4 292 -2 377 -8z"/>
<path d="M2525 4905 c-183 -61 -290 -223 -279 -418 7 -120 42 -202 119 -280
83 -82 184 -118 320 -113 253 10 424 230 383 493 -23 148 -145 284 -288 324
-76 21 -184 18 -255 -6z"/>
<path d="M3436 3418 c-116 -15 -228 -88 -291 -189 -53 -82 -73 -237 -45 -339
25 -93 83 -174 164 -230 147 -100 388 -85 522 33 173 151 181 446 17 611 -91
91 -227 134 -367 114z"/>
</g>
</svg>
